<svg xmlns="http://www.w3.org/2000/svg" width="200" height="40" x="0px" y="0px" viewBox="0 0 200 40" class="c-site-logo__image">
<g>
	<path class="u-fill-primary-lighter" d="M6.9,26.3V15.1l-6.9-4v15.3c0.1,2.7,1.9,5,4.3,6.5L16.5,40v-8L6.9,26.3z"></path>
	<path class="u-fill-primary" d="M18.2,6.7l9.6,5.6l6.9-4L22.5,1.2C19.9-0.3,16.6-0.4,14,1L1.6,8.2l6.9,4L18.2,6.7z"></path>
	<path class="u-fill-primary-light" d="M29.5,15.1v11.2l-9.6,5.6v8l12.2-7.1c2.6-1.5,4.4-4.2,4.4-7V11.1L29.5,15.1z"></path>
</g>
<g>
	<path class="u-fill-gray-500" d="M51.3,17.6c0,0.8,0.4,1.5,1.1,1.9c0.7,0.5,1.6,0.9,2.6,1.1c1,0.3,2.1,0.6,3.1,0.9c1,0.3,1.9,0.9,2.6,1.6   c0.7,0.8,1.1,1.7,1.1,3c0,1.5-0.6,2.8-1.8,3.7s-2.8,1.4-4.7,1.4c-1.7,0-3.2-0.4-4.4-1.2c-1.2-0.8-2.1-1.8-2.5-3l2-1.2   c0.3,0.9,0.9,1.7,1.8,2.2c0.9,0.5,1.9,0.8,3.1,0.8c1.2,0,2.2-0.2,3-0.7s1.2-1.2,1.2-2.2c0-0.8-0.4-1.5-1.1-1.9   c-0.7-0.5-1.6-0.9-2.6-1.1c-1-0.3-2.1-0.6-3.1-0.9c-1-0.3-1.9-0.9-2.6-1.6c-0.7-0.8-1.1-1.7-1.1-3c0-1.5,0.6-2.7,1.7-3.7   c1.2-1,2.6-1.5,4.4-1.5c1.5,0,2.7,0.3,3.9,1c1.1,0.7,1.9,1.6,2.4,2.7l-2,1.2c-0.7-1.7-2.1-2.5-4.3-2.5c-1,0-1.9,0.2-2.7,0.7   C51.7,16,51.3,16.7,51.3,17.6z"></path>
	<path class="u-fill-gray-500" d="M75.5,15.2h-5.2v10.9c0,1,0.2,1.7,0.6,2.1c0.4,0.4,1,0.6,1.7,0.6c0.8,0,1.7,0,2.9-0.1v2.1   c-2.5,0.4-4.4,0.2-5.7-0.5c-1.3-0.7-1.9-2.2-1.9-4.2V15.2h-3.8v-2.3h3.8V8.6l2.4-0.7v5h5.2V15.2z"></path>
	<path class="u-fill-gray-500" d="M81.3,15.9c1.1-2.2,3-3.3,5.7-3.3v2.3c-1.6,0-3,0.5-4.1,1.4c-1.1,1-1.6,2.5-1.6,4.5v10h-2.4v-18h2.4V15.9z"></path>
	<path class="u-fill-gray-500" d="M103,12.9h2.4v18H103v-2.8c-1.3,2.2-3.4,3.2-6,3.2c-2.2,0-3.9-0.7-5.2-2c-1.3-1.3-1.9-3.1-1.9-5.4V12.9h2.4   v11.1c0,1.6,0.4,2.9,1.3,3.7c0.9,0.9,2.1,1.3,3.6,1.3c1.7,0,3.1-0.5,4.2-1.6c1.1-1.1,1.6-2.8,1.6-5.1V12.9z"></path>
	<path class="u-fill-gray-500" d="M118.9,31.3c-2.7,0-5-0.9-6.8-2.7c-1.8-1.8-2.7-4-2.7-6.7s0.9-4.9,2.7-6.7c1.8-1.8,4.1-2.7,6.8-2.7   c1.8,0,3.4,0.4,4.8,1.3s2.4,2,3.1,3.4l-1.9,1.1c-0.5-1.1-1.3-1.9-2.3-2.6c-1.1-0.6-2.3-1-3.6-1c-2,0-3.7,0.7-5,2.1   c-1.4,1.4-2.1,3.1-2.1,5.1c0,2,0.7,3.7,2.1,5.1c1.4,1.4,3,2.1,5,2.1c1.3,0,2.5-0.3,3.6-1s1.9-1.5,2.5-2.6l2,1.2   c-0.7,1.4-1.8,2.6-3.3,3.4C122.2,30.9,120.6,31.3,118.9,31.3z"></path>
	<path class="u-fill-gray-500" d="M140.1,15.2h-5.2v10.9c0,1,0.2,1.7,0.6,2.1c0.4,0.4,1,0.6,1.7,0.6c0.8,0,1.7,0,2.9-0.1v2.1   c-2.5,0.4-4.4,0.2-5.7-0.5c-1.3-0.7-1.9-2.2-1.9-4.2V15.2h-3.8v-2.3h3.8V8.6l2.4-0.7v5h5.2V15.2z"></path>
</g>
</svg>